<svg width="264" height="146" viewBox="0 0 264 146" fill="none" xmlns="http://www.w3.org/2000/svg">
<g clip-path="url(#clip0_1_19)">
<g clip-path="url(#clip1_1_19)">
<path d="M219.2 0.200012L142.17 7.29001L137.24 17.43L88.67 21.88L69.51 61.31L79.59 60.39L44.09 133.15L93.34 128.64L106.53 101.62L121.27 145.15L167.87 140.87L147.24 79.96L219.2 0.200012Z" fill="#620009"/>
<path d="M140.84 76.78L205.36 5.26999L145.85 10.74L132.45 38.33L139.62 37.68L119.85 59.59L138.64 21.1L92.36 25.34L78.95 52.93L89.05 52.01L53.54 124.76L89.66 121.45L107.46 84.97L125.18 137.26L160.24 134.04L140.84 76.78Z" fill="#E3007F"/>
<path d="M196.13 9.89001L148.31 14.29L138.73 33.99L148.84 33.07L108.86 77.38L127.79 133.25L155.15 130.74L136.57 75.9L196.13 9.89001Z" fill="white"/>
<path d="M94.81 28.88L85.24 48.59L95.35 47.66L59.85 120.41L87.21 117.9L132.33 25.45L94.81 28.88Z" fill="white"/>
<path d="M90.02 38.73V38.74L85.24 48.59L95.35 47.66L113.84 36.55L90.02 38.73Z" fill="#DBDCDC"/>
<path d="M132.33 25.45L113.84 36.55L78.34 109.3L59.85 120.41L87.21 117.9L132.33 25.45Z" fill="#DBDCDC"/>
<path d="M148.84 33.07L172.49 21.48L143.52 24.14L138.73 33.99L148.84 33.07Z" fill="#DBDCDC"/>
<path d="M155.15 130.74L136.57 75.9L196.13 9.89001L172.49 21.48L122.72 76.64L138.26 122.88L127.79 133.25L155.15 130.74Z" fill="#DBDCDC"/>
</g>
</g>
<defs>
<clipPath id="clip0_1_19">
<rect width="263.15" height="145.57" fill="white"/>
</clipPath>
<clipPath id="clip1_1_19">
<rect width="183.29" height="145.55" fill="white" transform="translate(40)"/>
</clipPath>
</defs>
</svg>
