<svg width="264" height="146" viewBox="0 0 264 146" fill="none" xmlns="http://www.w3.org/2000/svg">
<g clip-path="url(#clip0_1_24)">
<g clip-path="url(#clip1_1_24)">
<path d="M125.8 57.4L130.6 66.8C130.6 66.8 139.5 63.6 142.7 62.5C141.6 66.8 128.5 118 128.5 118C128 120.1 126.1 123.7 123.1 124.5L120.6 125.2L115.6 145.2L122.9 143.1C151.2 135 191.9 125.7 192.3 125.6L194.8 125L201.2 103.6L193.5 102.2L193 102.6C189.8 105.4 184.3 109.5 181.8 110.1C181.8 110.1 164.6 114.1 159.9 115.2C162.1 106.8 182 31.8 182 31.8L125.8 57.4Z" fill="#AEAEAF"/>
<path d="M108.2 0.999994C89.3 4.39999 78 15.8 78 31.5C78 32.9 78.1 34.3 78.3 35.7C79.6 45.7 86.1 54 92.4 62C94.3 64.4 96.1 66.7 97.7 69C94.9 70.1 62 82.7 62 82.7L62.5 86.1C63.5 93.5 67.5 100.3 73.5 104.7C78.6 108.5 87.6 112.4 101.9 110C121.7 106.7 136.6 89.2 135 71.2C134 59.9 127.5 52.1 121.2 44.6C115.2 37.4 109.6 30.7 110.2 21.7C110.5 17.3 112.3 14.8 115.2 14.7C116.4 14.6 117.4 15.1 118.1 16.2C119 17.5 119.6 19.5 119.6 21.4C119.6 22.4 119.5 23.3 119.2 24.1L118.6 25.6L122 31L145 21.3L144.4 17.9C143.6 13.5 140.7 9.29999 136.2 6.09999C129 0.899994 118.8 -1.00001 108.2 0.999994ZM103 78.9C103.3 79.9 103.6 80.8 103.7 81.7C103.9 82.9 104 84 104 85.1C104 88.6 103.2 91.3 101.5 93.3C99.9 95.3 97.5 96.4 94.6 96.5C91.4 96.7 88.6 95.7 86.4 93.6C84.8 92.1 83.6 90.1 83 88C86.7 86.4 99 80.8 103 78.9Z" fill="#AEAEAF"/>
<path d="M194.1 106C191.2 108.4 185.7 112.7 182.5 113.3L159.4 118.6C158 118.9 157 118.8 156.6 118.4C156.2 117.9 156.2 116.8 156.6 115.2L177.2 37.4L130.1 58.9L132.2 62.9C132.2 62.9 143.9 58.7 147.2 57.5C146.1 61.7 131.6 118.8 131.6 118.8C130.8 122.3 128.1 126.5 123.9 127.6L123.2 127.8L120 140.8L122.1 140.2C150.3 132.2 191.3 122.7 191.7 122.6L192.4 122.4L197.2 106.4L194.1 106Z" fill="white"/>
<path d="M195.3 108.3L191.4 121.5C191.4 121.5 150.3 130.9 121.8 139.1L124.4 128.9C129.2 127.6 132.1 122.8 133 119.2L149 55.6L132.8 61.4L131.8 59.5L175.5 39.6L155.6 114.8C154.7 118 155.2 120.7 159.8 119.7L182.8 114.4C185.9 113.7 190.7 110.2 193.6 107.9L195.3 108.3Z" fill="#005BAC"/>
<path d="M123.4 26.9L141.6 19.3L141.4 18.3C140.8 14.7 138.3 11.2 134.5 8.49999C127.9 3.89999 118.5 2.29999 108.8 3.99999C89.5999 7.59999 79.3999 19.2 81.3999 35.3C82.5999 44.4 88.7999 52.4 94.7999 60C100.4 67.2 105.7 73.9 106.8 81.2C107.6 87.1 106.6 92 103.9 95.4C101.7 98.1 98.4999 99.6 94.6999 99.8C90.6999 100 86.9999 98.7 84.1999 96.1C80.8999 93.1 79.4999 89.1 79.2999 86.3C80.7999 85.6 103.5 75.2 103.5 75.2L101.2 71.1L65.3999 84.8L65.4999 85.8C66.3999 92.3 69.8999 98.3 75.2999 102.3C81.8999 107.2 90.8999 108.8 101.3 107.1C117.2 104.4 133.4 90.1 131.8 71.6C130.9 61.3 124.7 53.9 118.8 46.8C112.4 39 106.4 31.8 107.1 21.5C107.5 15.6 110.6 11.7 115.2 11.5C118.1 11.4 119.9 12.9 120.8 14.3C122.9 17.1 123.5 21.8 122.3 25.1L123.4 26.9Z" fill="white"/>
<path d="M124.5 25.1L140.2 18.5C138.7 9.9 125.7 2.2 109 5.3C89.8 8.8 80.8 20.6 82.7 35.2C84.9 52.3 105.9 65.5 108.1 81.1C109.9 93.7 103.4 100.6 94.8 101C83.7 101.6 78.2 91.8 78 85.5L101.7 74.6L100.6 72.6L66.8 85.6C68.3 97.1 79.1 109.5 101.2 105.8C117.7 103 132.1 88.5 130.6 71.7C128.8 50.9 104.4 42.2 105.8 21.5C106.3 14.4 110.1 10.6 115 10.4C122 10.1 124.9 18.1 123.8 24L124.5 25.1Z" fill="#005BAC"/>
</g>
</g>
<defs>
<clipPath id="clip0_1_24">
<rect width="263.15" height="145.57" fill="white"/>
</clipPath>
<clipPath id="clip1_1_24">
<rect width="139.3" height="145.6" fill="white" transform="translate(62)"/>
</clipPath>
</defs>
</svg>
