<svg width="264" height="146" viewBox="0 0 264 146" fill="none" xmlns="http://www.w3.org/2000/svg">
<g clip-path="url(#clip0_2_95)">
<g clip-path="url(#clip1_2_95)">
<path d="M204.5 10.2C199.9 4.49999 193.5 0.999993 185.7 0.199993C184.5 0.0999925 112.2 0.199993 112.2 0.199993C77.6999 0.399993 65.2999 25.9 60.9999 41.1C57.2999 54.1 57.4999 63.6 57.3999 66.3C57.3999 66.7 57.4999 67.3 57.7999 67.4C58.1999 67.6 58.7999 67.4 59.4999 66.7C60.2999 66 74.5999 51.5 76.6999 49.6C78.7999 47.7 87.8999 38.8 103.9 38.8L158.2 38.6C158 39.7 144.8 99.7 144.8 99.7C142.8 107.6 137 112 127 112.8C127 112.8 142.9 40.2 143 40.1C143.1 40 143 39.8 142.8 39.8C142.6 39.8 130.4 40.6 130.4 40.6C111.2 42.7 93.3999 58.6 89.0999 77.6L81.2999 112.9C69.7999 112.9 62.4999 111.1 57.8999 110.2C56.2999 109.9 54.8999 109.6 53.5999 109.3C53.0999 109.2 52.5999 109.6 52.8999 110.1C54.4999 113.3 58.2999 121.8 63.4999 128.7C70.5999 138 81.8999 143.4 96.2999 144.9L132.6 145.3C184.8 145.1 188.6 127.4 192.7 108.7C193.1 107.1 209.1 35 209.1 35C211.5 25.7 209.8 16.9 204.5 10.2Z" fill="#5C8EBB"/>
<path d="M201.2 13.1C196.8 7.39999 190 4.29999 181.9 4.39999L111.9 4.59999C87.4999 4.59999 72.5999 20 67.1999 33.1C63.8999 41.3 62.8999 46.4 62.1999 49.9C62.1999 49.9 60.8999 57.7 60.7999 60.2C60.7999 60.5 60.6999 60.7 60.8999 60.8C60.9999 60.9 61.1999 60.8 61.3999 60.6C62.7999 59.3 66.4999 55.1 67.3999 54.2C70.3999 51.2 75.8999 45.5 79.3999 43C83.7999 40 92.7999 34.8 104.1 34.8L160.6 34.6C161.6 34.6 162.2 34.8 162.3 35C163.1 36 162.4 37.6 162.4 37.6L148.8 100.5C146.2 110.8 137.6 116.2 122.5 116.6C122.5 116.6 138 44.8 138.1 44.5C138.2 44.2 138 43.9 137.6 44C137.2 44 130.6 44.7 130.6 44.7C113.1 46.6 97.0999 61 93.0999 78.2L86.4999 109L84.6999 116.8H82.5999C78.3999 116.8 73.1999 116.6 62.8999 114.8C61.0999 114.5 60.1999 114.2 59.9999 114.4C59.7999 114.6 59.8999 115 60.2999 115.9C60.4999 116.3 63.7999 124.5 71.9999 131.9C77.0999 136.5 85.5999 139.7 96.6999 140.8C102.8 141.4 109.3 141.5 115.4 141.5H124.8C168.5 141.4 182.3 137 189 108L205.4 34.6C207.2 26.5 205.7 18.8 201.2 13.1Z" fill="#071D3D"/>
<path d="M181.6 8.39999L111.6 8.59999C75.9999 8.69999 68.1999 41.6 67.7999 43C67.3999 44.3 66.2999 49.7 66.1999 50C66.0999 50.4 66.1999 50.6 66.5999 50.2C66.9999 49.8 71.4999 44.9 71.4999 44.9C71.5999 44.8 84.4999 31.1 104.3 31.1L160.8 30.9C163 30.9 164.5 31.5 165.5 32.7C167.4 35.1 166.3 39.4 165.1 43.9C164.8 45 152.6 101.4 152.6 101.4C148 119.8 127.1 119.9 120.3 119.9H118.3C118.3 119.9 133.5 48.5 133.6 48.2C133.7 47.9 133.4 47.7 133 47.8C132.7 47.8 130.8 48 130.8 48C114.8 49.8 99.9999 63 96.4999 78.8L86.9999 120C83.0999 120 78.7999 119.9 75.1999 119.5C72.9999 119.3 66.1999 118.1 65.6999 118C65.1999 117.9 65.0999 118.1 65.2999 118.5C65.4999 118.9 67.4999 121.9 67.4999 121.9C73.7999 131.1 83.8999 136.6 96.3999 137.2C108.9 137.9 118.2 137.5 127.2 137.7C153.4 138.1 178.1 137.9 185.3 107.5L201.6 34C203.2 27.1 201.9 20.5 198.1 15.7C194.3 11 188.4 8.29999 181.6 8.39999Z" fill="#C7A079"/>
<path d="M90.9 125L100.8 82.1C104 68.2 116.5 56.3 130.5 53.5C131 51.3 131.1 50.2 131.1 50.2C116.1 51.9 102 64.4 98.5999 79.2L88.7 122.1C81.3 122.1 73.6 121.4 69.2 120.6C70 121.8 71.3 123.3 71.4 123.4C75.9 124.8 83.5 125 90.9 125Z" fill="white"/>
<path d="M113.9 13.6L183.9 13.4C189.4 13.4 194.1 15.3 197.5 18.7C197.2 18.2 196.8 17.6 196.4 17.1C193.1 12.9 187.8 10.6 181.7 10.6L111.7 10.8C77.3 10.9 70 43.4 70 43.4C70 43.4 71.6 41.6 74.6 39.4C78.9 29.8 89.7 13.7 113.9 13.6Z" fill="white"/>
<path d="M122.6 124.9C129.7 124.9 152 124.8 157 104.8C157 104.8 169.2 48.4 169.5 47.3C170.8 42.2 172 37.4 169.5 34.2C169.1 33.7 168.7 33.3 168.1 32.9C169.4 36 168.3 40.1 167.3 44.5C167 45.6 154.8 102 154.8 102C149.8 122.1 127.5 122.1 120.4 122.1H118.2L117.6 124.9H122.6Z" fill="white"/>
</g>
</g>
<defs>
<clipPath id="clip0_2_95">
<rect width="263.15" height="145.57" fill="white"/>
</clipPath>
<clipPath id="clip1_2_95">
<rect width="157.3" height="145.6" fill="white" transform="translate(53)"/>
</clipPath>
</defs>
</svg>
