<svg version="1.1" id="Layer_1" xmlns="http://www.w3.org/2000/svg" xmlns:xlink="http://www.w3.org/1999/xlink" x="0px" y="0px"
	 width="100%" viewBox="0 0 184 184" enable-background="new 0 0 184 184" xml:space="preserve">
    <style>
		@media (prefers-color-scheme: dark) {
		.main { fill: #ffffff; }
		.sub { fill: #ef1c26; }
		}
		@media (prefers-color-scheme: light) {
		.main { fill: #ef1c26; }
		.sub { fill: #010039; }
		}
    </style>
<path class="sub" opacity="1.000000" stroke="none" 
	d="
M63.007828,160.839508 
	C61.286606,160.888351 59.565380,160.937180 57.422298,160.456268 
	C57.958420,142.147919 58.916401,124.369316 59.900524,106.105560 
	C55.002472,109.990326 50.704201,113.399391 46.455158,116.769409 
	C40.036274,111.520363 38.702591,103.953148 36.160515,97.007698 
	C36.111462,89.978394 36.062408,82.949097 36.403896,75.249878 
	C38.942616,63.163551 44.527340,53.483852 52.401077,45.194420 
	C62.160847,34.919380 74.303398,28.597563 87.992287,25.160511 
	C95.021599,25.111462 102.050911,25.062410 109.750122,25.403894 
	C122.610100,27.678741 131.714111,34.492775 138.964066,44.021717 
	C144.562027,51.379379 146.608124,60.247089 148.839508,68.992249 
	C148.888550,77.688210 148.937592,86.384171 148.589325,95.763252 
	C146.828766,106.431320 143.427094,115.709572 137.935211,124.114799 
	C126.264320,141.976913 110.403061,153.387695 88.726593,156.099396 
	C80.091148,157.179672 71.577126,159.230515 63.007828,160.839508 
M92.414253,31.873129 
	C73.261902,34.953007 58.018036,43.782314 50.730221,62.530819 
	C45.890491,74.981422 45.679752,87.727921 52.999077,100.127258 
	C56.986412,96.830559 60.324501,93.798431 63.950756,91.162773 
	C66.619728,89.222885 67.057930,87.407272 66.279068,84.074722 
	C62.517792,67.981094 72.016090,53.290062 88.316910,49.300205 
	C103.954552,45.472672 117.663063,53.790787 121.436798,70.099426 
	C125.052940,85.727005 122.288567,100.579483 113.642708,114.105064 
	C108.294548,122.471748 100.218224,126.076752 89.811310,125.969490 
	C91.110130,104.279350 92.399269,82.750740 93.734085,60.459446 
	C88.235710,61.667473 83.308815,63.058712 78.285599,63.747822 
	C74.786049,64.227913 74.139915,65.887711 73.973953,69.012238 
	C73.214249,83.314751 72.181747,97.602562 71.292091,111.898453 
	C70.591469,123.156715 69.956299,134.419052 69.245087,146.475815 
	C79.828728,144.694382 89.980019,143.241501 100.020805,141.235489 
	C114.930489,138.256729 126.147888,129.732346 133.601181,116.658890 
	C143.687119,98.967659 145.545914,80.108742 139.362885,60.753975 
	C132.784286,40.161011 114.810356,29.106588 92.414253,31.873129 
M108.937187,103.100792 
	C109.292076,95.651878 110.284447,88.161819 109.807205,80.766609 
	C109.399826,74.453949 106.636147,68.661179 100.340836,64.615654 
	C99.222618,82.783951 98.148277,100.239403 97.035271,118.323006 
	C104.257599,115.483253 106.337608,109.592697 108.937187,103.100792 
z"/>
<path class="main" opacity="1.000000" stroke="none" 
	d="
M92.848900,31.825354 
	C114.810356,29.106588 132.784286,40.161011 139.362885,60.753975 
	C145.545914,80.108742 143.687119,98.967659 133.601181,116.658890 
	C126.147888,129.732346 114.930489,138.256729 100.020805,141.235489 
	C89.980019,143.241501 79.828728,144.694382 69.245087,146.475815 
	C69.956299,134.419052 70.591469,123.156715 71.292091,111.898453 
	C72.181747,97.602562 73.214249,83.314751 73.973953,69.012238 
	C74.139915,65.887711 74.786049,64.227913 78.285599,63.747822 
	C83.308815,63.058712 88.235710,61.667473 93.734085,60.459446 
	C92.399269,82.750740 91.110130,104.279350 89.811310,125.969490 
	C100.218224,126.076752 108.294548,122.471748 113.642708,114.105064 
	C122.288567,100.579483 125.052940,85.727005 121.436798,70.099426 
	C117.663063,53.790787 103.954552,45.472672 88.316910,49.300205 
	C72.016090,53.290062 62.517792,67.981094 66.279068,84.074722 
	C67.057930,87.407272 66.619728,89.222885 63.950756,91.162773 
	C60.324501,93.798431 56.986412,96.830559 52.999077,100.127258 
	C45.679752,87.727921 45.890491,74.981422 50.730221,62.530819 
	C58.018036,43.782314 73.261902,34.953007 92.848900,31.825354 
z"/>
</svg>