<svg width="264" height="146" viewBox="0 0 264 146" fill="none" xmlns="http://www.w3.org/2000/svg">
<g clip-path="url(#clip0_1_16)">
<g clip-path="url(#clip1_1_16)">
<path d="M42.32 1.48999H220.99L194.31 55.31C178.49 43.33 155.4 39.39 155.4 39.39L165.18 122.07L131.65 143.38L98.01 121.88L107.76 38.48C107.76 38.48 88.65 42.95 68.98 54.75L42.32 1.48999Z" fill="#00001D"/>
<path d="M131.66 145.09L96.49 122.6L106.08 40.39C100.71 41.87 85.31 46.61 69.7 55.97L68.38 56.76L40 0.0599976H223.29L194.82 57.5L193.43 56.45C180.65 46.77 162.75 42.38 157 41.17L166.69 122.79L131.66 145.11V145.09ZM99.53 121.15L131.63 141.67L163.66 121.35L153.79 37.66L155.63 37.98C156.56 38.14 177.95 41.88 193.76 53.15L218.68 2.92H44.64L69.55 52.73C88.73 41.53 107.23 37.13 107.42 37.08L109.41 36.62L99.53 121.15Z" fill="#C9CACA"/>
<path d="M209.47 8.44H54.21L73 38.37C73 38.37 91.15 30.59 114.89 30.59L109.9 116.08L131.83 127.69L153.37 116.08L148.19 30.39C148.19 30.39 171.72 30.79 190.47 37.97L209.46 8.44H209.47Z" fill="#EB615A"/>
<path d="M131.83 127.69L153.37 116.08L148.19 30.39C148.19 30.39 171.72 30.79 190.47 37.97L200.02 23.53C167.04 18.43 131.82 18.41 131.82 18.41V102.44L109.89 116.08L131.82 127.69H131.83Z" fill="#E30021"/>
<path d="M114.89 30.59C114.89 30.59 95.18 29.67 73 38.37L63.83 24.17C88.61 19.22 131.83 18.41 131.83 18.41L114.88 30.59H114.89Z" fill="#E30021"/>
<path d="M131.84 129.32L108.41 116.92L113.36 32.04C90.97 32.35 73.73 39.61 73.56 39.69L72.42 40.17L51.62 7.01001H212.1L191.07 39.73L189.97 39.31C174.41 33.35 155.23 32.12 149.73 31.88L154.87 116.91L131.85 129.31L131.84 129.32ZM111.37 115.26L131.82 126.08L151.89 115.27L146.66 28.95L148.21 28.97C149.17 28.99 171.33 29.44 189.89 36.24L206.83 9.88001H56.8L73.57 36.6C77.94 34.89 94.21 29.17 114.88 29.17H116.4L111.37 115.26Z" fill="white"/>
</g>
</g>
<defs>
<clipPath id="clip0_1_16">
<rect width="263.15" height="145.57" fill="white"/>
</clipPath>
<clipPath id="clip1_1_16">
<rect width="183.29" height="145.21" fill="white" transform="translate(40)"/>
</clipPath>
</defs>
</svg>
