<svg width="264" height="146" viewBox="0 0 264 146" fill="none" xmlns="http://www.w3.org/2000/svg">
<g clip-path="url(#clip0_1_21)">
<g clip-path="url(#clip1_1_21)">
<path d="M174.47 14.58L101.71 14.64C89.71 14.64 73.44 17.72 63.72 26.39C55.95 33.35 52 40.89 52 48.79C52 55.48 54.56 61.23 59.6 65.88C64.72 70.61 72.86 72.12 78.61 72.12C79.12 72.12 79.58 72.12 79.98 72.08C91.56 70.78 96.77 65.53 96.77 65.53C96.77 65.53 85.82 60.45 85.82 56.25C85.82 53.47 89.16 48.75 101.52 48.75H115.4L101.63 145.2H142.03L155.55 48.75H157.98C158.84 48.79 159.7 48.81 160.54 48.81C181.85 48.81 202.34 37.01 208.59 21.54C210.93 15.73 211.99 -0.0100098 211.99 -0.0100098C211.99 -0.0100098 194.38 14.57 174.46 14.57" fill="white"/>
<path d="M174.47 18.72L101.7 18.78C90.99 18.78 75.32 21.58 66.48 29.49C59.61 35.62 56.13 42.12 56.13 48.8C56.13 54.29 58.24 59.01 62.4 62.86C67.55 67.63 76.1 68.35 79.54 68.15C87.24 67.69 89.86 65.89 89.86 65.89C89.86 65.89 86.78 64.15 85.18 62.63C83.75 61.27 81.67 59.46 81.67 56.28C81.67 55.09 82.23 44.64 101.5 44.64H120.15L106.39 141.09H138.42L151.93 44.64H158.14C158.93 44.68 159.72 44.7 160.52 44.7C179.9 44.7 199.32 33.88 204.71 20.06C205.83 17.21 207.49 7.42999 207.49 7.42999C207.49 7.42999 193.1 18.74 174.44 18.74" fill="#231815"/>
<path d="M109.69 138.23L123.45 41.78H101.52C80.83 41.78 78.84 53.19 78.84 56.26C78.84 60.9 81.8 63.21 84.35 64.96C78.26 65.84 69.07 65.14 64.33 60.75C62.02 58.62 58.98 54.95 58.98 48.78C58.98 43.81 61.34 37.87 68.37 31.6C75.9 24.88 89.84 21.61 101.69 21.61L174.46 21.55C187.79 21.55 200.42 15.09 203.86 13.18C203.47 15.06 203.1 16.35 202.07 19C196.9 32.22 177.86 41.83 160.53 41.83C159.78 41.83 159.03 41.81 158.28 41.78H158.04H149.47L135.95 138.23H109.67H109.69Z" fill="#C40037"/>
</g>
</g>
<defs>
<clipPath id="clip0_1_21">
<rect width="263.15" height="145.57" fill="white"/>
</clipPath>
<clipPath id="clip1_1_21">
<rect width="160" height="145.21" fill="white" transform="translate(52)"/>
</clipPath>
</defs>
</svg>
