<?xml version="1.0" encoding="UTF-8"?>
<svg width="68px" height="40px" id="_레이어_1" xmlns="http://www.w3.org/2000/svg" viewBox="0 0 50.41 52.28">
<defs>
<style>.cls-1{fill:#e94f15;}</style>
</defs>
<path class="cls-1" d="M50.41,14.64l-2.33.39-1.05-2.14c-2.56-5.25-4.54-6.14-9.71-5.23l-1.36.24-6.79,15.45,9.93-1.74-2.27,5.16-9.9,1.68-1.87,4.25c-2.2,4.97-5.07,8.51-9.75,10.78l14.12-2.48c5.53-.96,7.49-2.6,10.85-7.85l1.17-1.82,4.01-.75-1.87,4.24c-3.73,8.56-6.89,11.08-15.12,12.48L0,52.28l2.35-5.37c6.6-3.51,8.44-5.87,11.53-12.87l10.6-24.12-1.65.29c-9.69,1.7-14.54,7.96-14.85,14.37-.1,2.02.3,4.27,1.15,6.05-4.44-2.16-7.59-5.78-7.4-9.74.33-6.92,7.09-13.81,25.15-16.98L49.24,0l1.17,14.64Z"/>
</svg>